HIERARCHY
ROOT Hips
{
	OFFSET 0.000000 0.000000 0.000000
	CHANNELS 6 Xposition Yposition Zposition Xrotation Yrotation Zrotation
	JOINT LeftUpLeg_virtual
	{
		OFFSET 0.000000 0.000000 0.000000
		CHANNELS 3 Xrotation Yrotation Zrotation
		JOINT LeftUpLeg
		{
			OFFSET 11.394100 -6.187798 -0.413800
			CHANNELS 3 Xrotation Yrotation Zrotation
			JOINT LeftLeg
			{
				OFFSET 0.430247 -32.302673 3.732800
				CHANNELS 3 Xrotation Yrotation Zrotation
				JOINT LeftFoot
				{
					OFFSET -0.430247 -48.264931 -6.423300
					CHANNELS 3 Xrotation Yrotation Zrotation
					JOINT LeftToeBase
					{
						OFFSET 4.230900 -16.068199 23.438400
						CHANNELS 3 Xrotation Yrotation Zrotation
						JOINT LeftToe_End
						{
							OFFSET 4.510700 0.695400 19.974600
							CHANNELS 3 Xrotation Yrotation Zrotation
							End Site
							{
								OFFSET 0 0 0
							}
						}
					}
				}
			}
		}
	}
	JOINT RightUpLeg_virtual
	{
		OFFSET 0.000000 0.000000 0.000000
		CHANNELS 3 Xrotation Yrotation Zrotation
		JOINT RightUpLeg
		{
			OFFSET -11.333700 -6.187798 -0.413800
			CHANNELS 3 Xrotation Yrotation Zrotation
			JOINT RightLeg
			{
				OFFSET -0.430392 -32.302628 3.733000
				CHANNELS 3 Xrotation Yrotation Zrotation
				JOINT RightFoot
				{
					OFFSET 0.430392 -48.264973 -6.423500
					CHANNELS 3 Xrotation Yrotation Zrotation
					JOINT RightToeBase
					{
						OFFSET -4.230900 -16.068199 23.438400
						CHANNELS 3 Xrotation Yrotation Zrotation
						JOINT RightToe_End
						{
							OFFSET -4.510700 0.695400 19.974600
							CHANNELS 3 Xrotation Yrotation Zrotation
							End Site
							{
								OFFSET 0 0 0
							}
						}
					}
				}
			}
		}
	}
	JOINT Spine_virtual
	{
		OFFSET 0.000000 0.000000 0.000000
		CHANNELS 3 Xrotation Yrotation Zrotation
		JOINT Spine
		{
			OFFSET -0.002400 12.777504 0.315300
			CHANNELS 3 Xrotation Yrotation Zrotation
			JOINT Spine1
			{
				OFFSET -0.002067 5.816869 0.032633
				CHANNELS 3 Xrotation Yrotation Zrotation
				JOINT Spine1_split
				{
					OFFSET -0.002067 5.816869 0.032633
					CHANNELS 3 Xrotation Yrotation Zrotation
					JOINT Spine2
					{
						OFFSET -0.002067 5.816869 0.032633
						CHANNELS 3 Xrotation Yrotation Zrotation
						JOINT Neck_virtual
						{
							OFFSET 0.000000 0.000000 0.000000
							CHANNELS 3 Xrotation Yrotation Zrotation
							JOINT Neck
							{
								OFFSET -0.003700 21.199493 -0.826900
								CHANNELS 3 Xrotation Yrotation Zrotation
								JOINT Head
								{
									OFFSET 0.000000 20.442200 4.834800
									CHANNELS 3 Xrotation Yrotation Zrotation
									JOINT HeadTop_End
									{
										OFFSET 0.000000 34.668396 4.968400
										CHANNELS 3 Xrotation Yrotation Zrotation
										End Site
										{
											OFFSET 0 0 0
										}
									}
								}
							}
						}
						JOINT LeftShoulder_virtual
						{
							OFFSET 0.000000 0.000000 0.000000
							CHANNELS 3 Xrotation Yrotation Zrotation
							JOINT LeftShoulder
							{
								OFFSET 3.288150 8.794197 -1.372250
								CHANNELS 3 Xrotation Yrotation Zrotation
								JOINT LeftShoulder_split
								{
									OFFSET 3.288150 8.794197 -1.372250
									CHANNELS 3 Xrotation Yrotation Zrotation
									JOINT LeftArm
									{
										OFFSET 11.953299 -2.279007 -0.146200
										CHANNELS 3 Xrotation Yrotation Zrotation
										JOINT LeftForeArm
										{
											OFFSET 18.448900 0.000000 0.000000
											CHANNELS 3 Xrotation Yrotation Zrotation
											JOINT LeftHand
											{
												OFFSET 29.527798 0.000000 0.000000
												CHANNELS 3 Xrotation Yrotation Zrotation
												End Site
												{
													OFFSET 0 0 0
												}
											}
										}
									}
								}
							}
						}
						JOINT RightShoulder_virtual
						{
							OFFSET 0.000000 0.000000 0.000000
							CHANNELS 3 Xrotation Yrotation Zrotation
							JOINT RightShoulder
							{
								OFFSET -3.249400 8.794197 -1.372250
								CHANNELS 3 Xrotation Yrotation Zrotation
								JOINT RightShoulder_split
								{
									OFFSET -3.249400 8.794197 -1.372250
									CHANNELS 3 Xrotation Yrotation Zrotation
									JOINT RightArm
									{
										OFFSET -11.953299 -2.279007 -0.146200
										CHANNELS 3 Xrotation Yrotation Zrotation
										JOINT RightForeArm
										{
											OFFSET -18.448900 0.000000 0.000000
											CHANNELS 3 Xrotation Yrotation Zrotation
											JOINT RightHand
											{
												OFFSET -29.527802 0.000000 0.000000
												CHANNELS 3 Xrotation Yrotation Zrotation
												End Site
												{
													OFFSET 0 0 0
												}
											}
										}
									}
								}
							}
						}
					}
				}
			}
		}
	}
}
MOTION
Frames: 8
Frame Time: 0.03333333
1.042689 81.279678 1.350132 0.000000 0.000000 0.000000 8.320174 -54.752463 9.540976 -73.654820 24.220104 40.239998 48.990539 -16.165323 4.569671 11.642288 -0.808250 -7.094189 -0.446024 -6.148354 1.651403 0.000000 0.000000 0.000000 7.704574 -55.743151 10.088109 -35.325718 -0.821650 -24.095815 44.342947 5.120309 -7.647333 -18.551661 -3.479639 26.852361 4.893483 5.079330 3.382861 0.000000 0.000000 0.000000 10.512509 -49.419653 10.947029 13.534548 3.506510 -3.235143 2.990559 6.747620 -4.366700 0.202724 -4.382799 1.389247 0.000000 0.000000 0.000000 -3.792873 5.883353 -3.263673 -0.627388 10.851550 -0.160093 -2.463656 26.442355 -4.549737 0.000000 0.000000 0.000000 -4.753862 5.591581 -3.416483 -0.713876 -7.752424 -2.595665 -0.158783 -3.186860 2.840682 -10.373682 5.853444 -45.470086 -20.925495 -28.721092 -16.832685 0.000000 0.000000 0.000000 -5.189701 5.545164 -2.859658 -2.330778 21.529260 0.997726 -5.069465 -2.233900 3.231277 3.318562 -29.758888 59.178200 -19.572508 38.789461 19.149656 0.000000 0.000000 0.000000 
0.743181 81.180099 1.119305 0.000000 0.000000 0.000000 8.193387 -54.715146 9.741968 -73.796437 24.480781 40.353939 49.109217 -16.441881 4.576967 12.131087 -0.869289 -7.329409 0.120297 -6.069464 1.213292 0.000000 0.000000 0.000000 7.519073 -55.679859 10.174152 -35.798893 -0.997459 -24.326639 44.165567 4.890677 -7.549316 -18.416809 -3.451322 26.567937 4.792436 5.081446 3.387784 0.000000 0.000000 0.000000 10.069712 -49.395429 10.671976 13.670678 3.289004 -3.486952 2.964589 6.716445 -4.383603 -0.181477 -4.045382 1.025398 0.000000 0.000000 0.000000 -3.891085 5.918495 -3.268213 -0.739519 11.183690 -0.317361 -2.358640 26.516756 -4.371430 0.000000 0.000000 0.000000 -4.799863 5.577056 -3.400371 -0.599167 -7.964410 -2.038313 -0.577139 -2.516813 2.036392 -11.041956 5.910439 -45.505531 -21.432497 -29.687178 -17.418280 0.000000 0.000000 0.000000 -5.081223 5.523621 -2.783778 -2.324299 21.157435 1.106811 -5.994769 -1.589130 3.303603 5.266786 -30.031420 59.910246 -19.620292 39.094456 19.231786 0.000000 0.000000 0.000000 
0.371617 81.187584 0.903500 0.000000 0.000000 0.000000 7.989232 -54.797532 9.707559 -73.731455 24.611750 40.581538 48.846002 -16.606379 4.595790 12.538691 -0.931251 -7.728577 0.531336 -5.967257 0.426893 0.000000 0.000000 0.000000 7.133648 -55.886230 10.008020 -36.162399 -1.219930 -24.234027 44.047453 4.548677 -7.436670 -18.489665 -3.506377 25.877724 4.717814 5.059431 3.282923 0.000000 0.000000 0.000000 9.596051 -49.587156 10.246200 13.771003 3.058191 -3.767244 2.942437 6.764533 -4.365731 -0.405082 -3.684170 0.942181 0.000000 0.000000 0.000000 -3.948980 6.055236 -3.224980 -0.571243 11.557168 -0.525181 -1.993446 25.895158 -4.144324 0.000000 0.000000 0.000000 -4.862754 5.660974 -3.245075 -0.477312 -8.322083 -1.500654 -0.516099 -1.817537 1.026920 -11.389772 6.222220 -45.041126 -22.439577 -31.726912 -18.798359 0.000000 0.000000 0.000000 -4.976776 5.599126 -2.675866 -2.123701 20.642329 0.958078 -6.462036 -0.945131 3.186906 7.742509 -30.873015 61.399357 -20.204258 41.125775 19.716553 0.000000 0.000000 0.000000 
0.106511 81.335197 0.693058 0.000000 0.000000 0.000000 7.752725 -55.230604 9.473456 -73.363922 24.454292 40.763061 48.176972 -16.692282 4.611055 12.883198 -0.977744 -8.360474 0.266595 -5.835507 -0.380314 0.000000 0.000000 0.000000 6.714111 -56.225072 9.706159 -36.620903 -1.449326 -23.842872 43.980565 4.281541 -7.337355 -18.561133 -3.502282 25.001936 4.854919 5.027220 3.048221 0.000000 0.000000 0.000000 9.243858 -50.156579 9.826593 13.788391 2.829580 -3.965325 2.938827 6.831809 -4.298872 -0.251830 -3.345307 1.123217 0.000000 0.000000 0.000000 -3.940605 6.220190 -3.124391 -0.291434 12.004956 -0.776000 -1.422267 24.794661 -4.002822 0.000000 0.000000 0.000000 -4.916008 5.776291 -3.016155 -0.375620 -8.764052 -1.212523 0.110613 -1.270233 0.090802 -11.320392 6.613915 -44.186256 -23.727092 -34.290862 -20.673333 0.000000 0.000000 0.000000 -4.913272 5.710879 -2.542853 -1.798545 20.071312 0.656915 -6.691544 -0.870604 2.912654 10.149415 -32.126164 62.926335 -21.321822 44.340331 20.581897 0.000000 0.000000 0.000000 
-0.027432 81.544487 0.547497 0.000000 0.000000 0.000000 7.624704 -56.003057 9.261937 -72.704673 24.083722 40.767565 47.503607 -16.749174 4.728662 13.105363 -0.932355 -9.389000 -0.365583 -5.682653 -0.907733 0.000000 0.000000 0.000000 6.478889 -56.655716 9.459257 -37.298621 -1.712068 -23.254006 44.063268 4.215007 -7.242104 -18.661359 -3.326346 23.984537 5.435234 4.970913 2.722848 0.000000 0.000000 0.000000 9.232876 -51.044582 9.608249 13.693807 2.642638 -4.004511 2.971022 6.867104 -4.213747 0.056488 -3.012329 1.294537 0.000000 0.000000 0.000000 -3.862603 6.331135 -2.996905 -0.070035 12.585088 -1.162915 -0.753359 23.588758 -4.101675 0.000000 0.000000 0.000000 -4.929283 5.825586 -2.777443 -0.323518 -9.181125 -1.368374 0.823141 -0.795326 -0.506866 -10.820889 6.947489 -43.035154 -24.978318 -36.958000 -22.640714 0.000000 0.000000 0.000000 -4.917402 5.786126 -2.407245 -1.451943 19.564297 0.317474 -6.659922 -1.420973 2.499759 11.971524 -33.285909 63.683973 -22.953223 48.147971 21.823026 0.000000 0.000000 0.000000 
-0.096524 81.739380 0.621880 0.000000 0.000000 0.000000 7.670354 -57.083217 9.317923 -71.692903 23.722582 40.440963 46.999696 -16.659496 4.944028 12.883467 -0.630626 -10.778555 -0.727427 -5.526389 -1.070538 0.000000 0.000000 0.000000 6.564502 -57.283506 9.537574 -38.368277 -2.009221 -22.673486 44.321169 4.324489 -7.139166 -18.706356 -2.981984 22.845671 6.308362 4.876793 2.383085 0.000000 0.000000 0.000000 9.596447 -52.339600 9.793363 13.500700 2.486884 -3.876295 2.999941 6.847106 -4.159440 0.369870 -2.971440 1.393915 0.000000 0.000000 0.000000 -3.774469 6.337218 -2.885353 -0.106165 13.391541 -1.706959 0.014034 22.629798 -4.570114 0.000000 0.000000 0.000000 -4.934448 5.766181 -2.632653 -0.336857 -9.470387 -2.060254 1.166992 -0.377870 -0.575866 -9.685895 7.141424 -41.797875 -25.921871 -39.402467 -24.312846 0.000000 0.000000 0.000000 -5.032707 5.751603 -2.322271 -1.156172 19.238257 -0.030290 -6.321776 -2.204169 2.146108 12.927169 -34.074940 63.160679 -24.943547 51.901617 23.349111 0.000000 0.000000 0.000000 
-0.192177 81.855408 0.839859 0.000000 0.000000 0.000000 8.130450 -58.357799 9.913795 -70.292086 23.701486 39.935696 46.323566 -16.378066 5.163940 11.922084 0.004684 -12.348125 -0.826407 -5.376640 -0.752336 0.000000 0.000000 0.000000 7.032117 -58.304735 10.129192 -39.987220 -2.302949 -22.239178 44.675075 4.615685 -7.036943 -18.283173 -2.362408 21.905002 6.450674 4.723597 2.200939 0.000000 0.000000 0.000000 10.369834 -53.920925 10.506211 13.239868 2.381587 -3.623601 2.966764 6.769673 -4.196198 0.517477 -3.058480 1.320588 0.000000 0.000000 0.000000 -3.761510 6.226066 -2.860639 -0.504386 14.476572 -2.474518 0.918052 22.197884 -5.487168 0.000000 0.000000 0.000000 -4.959729 5.617017 -2.633476 -0.395898 -9.532848 -3.074367 0.936138 -0.065702 -0.216956 -8.071159 7.241017 -40.673544 -26.396936 -41.175789 -25.384265 0.000000 0.000000 0.000000 -5.308228 5.593875 -2.334791 -0.954311 19.007850 -0.363364 -5.627817 -2.803408 1.944379 13.131863 -34.148897 61.328282 -26.851282 55.079161 24.790293 0.000000 0.000000 0.000000 
-0.349170 82.019592 1.105007 0.000000 0.000000 0.000000 9.220098 -59.820928 11.267644 -68.452129 24.158167 39.377345 45.111729 -15.951135 5.278744 10.488502 0.906420 -14.147729 -1.149902 -5.167595 -0.049549 0.000000 0.000000 0.000000 8.126089 -59.723420 11.452246 -42.029965 -2.566083 -21.981333 45.227518 5.103697 -6.969519 -17.134095 -1.358812 21.429155 5.442113 4.485438 2.393647 0.000000 0.000000 0.000000 11.567148 -55.626314 11.796993 12.943053 2.319330 -3.321378 2.807510 6.663749 -4.372141 0.499167 -3.275175 1.211877 0.000000 0.000000 0.000000 -3.895103 6.043908 -2.972644 -1.157902 15.819459 -3.455433 2.018014 22.309404 -6.840519 0.000000 0.000000 0.000000 -5.111299 5.443441 -2.801516 -0.485018 -9.346672 -4.057778 0.284698 0.183672 0.579899 -6.102483 7.308022 -39.860236 -26.418193 -42.084668 -25.789164 0.000000 0.000000 0.000000 -5.759008 5.344635 -2.492068 -0.822721 18.716774 -0.761357 -4.928797 -3.167138 1.869469 12.909742 -33.638347 58.736205 -28.048681 57.297808 25.617533 0.000000 0.000000 0.000000 
